<svg id="Layer_1" data-name="Layer 1" xmlns="http://www.w3.org/2000/svg" xmlns:xlink="http://www.w3.org/1999/xlink" viewBox="0 0 348 348"><defs><linearGradient id="linear-gradient" x1="31.46" y1="308.2" x2="314.32" y2="41.89" gradientUnits="userSpaceOnUse"><stop offset="0" stop-color="#32a7af"/><stop offset="0.52" stop-color="#186675"/><stop offset="1" stop-color="#0a3a4a"/></linearGradient></defs><rect width="348" height="348" rx="117.15" fill="url(#linear-gradient)"/><path d="M273.61,280.39l-5.11-3.49-74.68-51.09a14.13,14.13,0,0,1-2.22-1.91,13.49,13.49,0,0,1,4.76-22.31l106.9-39.45a13.5,13.5,0,1,1,9.35,25.32L230.1,217.92,307.69,271a14.84,14.84,0,0,1-1.87,25.06L201,340.54a13.5,13.5,0,0,1-10.55-24.85c29.94-12.73,79.82-34.16,82.92-35.18Z" transform="translate(-76.5 -75.5)" fill="#bff8ff"/></svg>