<svg id="Layer_1" data-name="Layer 1" xmlns="http://www.w3.org/2000/svg" viewBox="0 0 1125 2436"><rect width="1125" height="2436" fill="#093b48"/><path d="M404.77,0H0V714.08A84.25,84.25,0,0,0,49.38,681l377.94-529.9a84.26,84.26,0,0,0,8.07-83.88Z" fill="#176775"/><path d="M789.51,0a259.13,259.13,0,0,0-50.9,154.63C738.61,298.43,855.18,415,999,415a259.14,259.14,0,0,0,126-32.51V0Z" fill="#33a6af"/><path d="M1125,1472l-91-14.7a140.86,140.86,0,0,0-131.65,50.07L470.57,2037.18a140.83,140.83,0,0,0-22.47,139L546.89,2436H1125Z" fill="#33a6af"/><path d="M209.5,872A336,336,0,0,0,0,944.9v529.2A336,336,0,0,0,209.5,1547c186.4,0,337.5-151.1,337.5-337.5S395.9,872,209.5,872Z" fill="#176775"/></svg>