<svg id="Layer_2" data-name="Layer 2" xmlns="http://www.w3.org/2000/svg" viewBox="0 0 1125 2436"><rect width="1125" height="2436" fill="#093b48"/><path d="M436.36,0H0V711.47l331.1-32.13a84.26,84.26,0,0,0,68.56-49L569,258.09a84.25,84.25,0,0,0-8.14-83.87Z" fill="#33a6af"/><path d="M901.47,0A173,173,0,0,0,1125,263.49V0Z" fill="#176775"/><path d="M480.41,2436,570,2333.59a84.25,84.25,0,0,0,16.33-82.67l-210-616.05a84.27,84.27,0,0,0-63.43-55.48L0,1517.61V2436Z" fill="#176775"/><path d="M805,1376.5c0,180.31,141.82,327.49,320,336.09V1040.41C946.82,1049,805,1196.19,805,1376.5Z" fill="#33a6af"/></svg>